PathFileType	4	(X/Y/Z)	 s09c0301.trc
DataRate	CameraRate	NumFrames	NumMarkers	Units	OrigDataRate	OrigDataStartFrame	OrigNumFrames
200	200	5	50	mm	200	251	2000
Frame#	Time	racr			lacr			c7			jug			rlel			rdr			llel			ldr			s2			lic			ric			lasi			rasi			rpsi			lpsi			rgt			lgt			rth1			rth2			rth3			rth4			rlfc			rmfc			rsh1			rsh2			rsh3			rsh4			rlmal			rmmal			rcal			rtoe			rmt5			lth1			lth2			lth4			lth3			llfc			lmfc			llmal			lmmal			lcal			lmt5			lsh1			lsh2			lsh3			lsh4			ltoe			SBIKE			LBIKE			RBIKE			
		X1	Y1	Z1	X2	Y2	Z2	X3	Y3	Z3	X4	Y4	Z4	X5	Y5	Z5	X6	Y6	Z6	X7	Y7	Z7	X8	Y8	Z8	X9	Y9	Z9	X10	Y10	Z10	X11	Y11	Z11	X12	Y12	Z12	X13	Y13	Z13	X14	Y14	Z14	X15	Y15	Z15	X16	Y16	Z16	X17	Y17	Z17	X18	Y18	Z18	X19	Y19	Z19	X20	Y20	Z20	X21	Y21	Z21	X22	Y22	Z22	X23	Y23	Z23	X24	Y24	Z24	X25	Y25	Z25	X26	Y26	Z26	X27	Y27	Z27	X28	Y28	Z28	X29	Y29	Z29	X30	Y30	Z30	X31	Y31	Z31	X32	Y32	Z32	X33	Y33	Z33	X34	Y34	Z34	X35	Y35	Z35	X36	Y36	Z36	X37	Y37	Z37	X38	Y38	Z38	X39	Y39	Z39	X40	Y40	Z40	X41	Y41	Z41	X42	Y42	Z42	X43	Y43	Z43	X44	Y44	Z44	X45	Y45	Z45	X46	Y46	Z46	X47	Y47	Z47	X48	Y48	Z48	X49	Y49	Z49	X50	Y50	Z50	
251	1.2550	432.561470	1250.549034	-66.199667	444.442103	1259.265304	-393.718553	398.724148	1317.203826	-229.839268	405.833764	1175.872004	-233.099546	497.989183	1027.898824	22.075974	704.648892	880.510889	-37.924021	490.531458	1021.212528	-516.833968	695.167137	880.785396	-456.016509	-68.850789	1123.904902	-227.682782	69.521881	1126.957940	-373.828839	82.473732	1121.867727	-83.279337	114.075780	1069.324297	-355.316173	123.733570	1063.955687	-102.492292	-36.780879	1156.171107	-166.793741	-41.487991	1163.841217	-277.666324	51.977347	973.482695	-39.044786	39.475728	1004.980796	-423.778112	147.317040	869.102027	-43.492038	221.261067	823.122784	-49.663517	258.485824	742.732307	-58.887900	245.957423	844.468662	-66.457408	305.771960	655.836756	-93.356871	288.749824	643.986779	-190.186510	230.706023	584.184499	-64.392910	194.844045	503.052582	-81.121386	124.001123	450.970603	-82.027713	214.860056	491.933365	-113.898812	58.263722	377.029724	-84.567655	66.818795	386.700288	-163.678274	-30.025493	367.745078	-127.287282	217.192795	274.576738	-122.709537	132.578447	285.821297	-60.526054	159.281160	934.954465	-425.529069	243.219186	921.645226	-419.488294	259.037122	953.857895	-407.212638	313.206726	864.530240	-419.203713	392.262474	804.386350	-400.902494	412.208473	798.087831	-299.765322	349.322597	444.466834	-406.037300	366.346993	454.466306	-335.801345	281.905247	405.518052	-368.878303	449.478488	364.298904	-433.248019	379.818921	705.266034	-422.870202	393.848451	619.782430	-414.355611	361.880337	536.906669	-412.485174	419.818880	619.716281	-384.189136	541.114065	382.922613	-365.530612	-65.666753	852.821860	-238.989582	20.589311	84.810966	-441.969628	21.101218	83.988674	-43.810292	
252	1.2600	432.458722	1250.732120	-66.158418	444.582042	1259.562435	-393.593521	398.504079	1317.376869	-229.698818	405.716150	1175.911395	-233.035447	498.023832	1028.021092	21.890528	704.665218	880.475214	-37.895053	490.565148	1021.358215	-516.661984	695.156312	880.813132	-455.969215	-68.976708	1123.798396	-227.713729	69.421184	1126.948415	-373.931317	82.332117	1121.839062	-83.309837	113.998674	1069.312556	-355.357639	123.605491	1063.951647	-102.523405	-36.967782	1156.084143	-166.849218	-41.632985	1163.751461	-277.680492	51.898592	973.460645	-39.046712	39.419583	1004.893538	-423.792859	147.295783	869.132011	-43.499644	221.287835	823.197139	-49.698144	258.535195	742.827211	-58.908710	245.964921	844.572976	-66.452741	305.874366	656.025789	-93.411536	288.853516	644.114285	-190.200184	230.776878	584.363057	-64.417441	194.949015	503.228031	-81.118728	124.055777	451.141210	-82.055240	214.958002	492.127013	-113.879472	58.295862	377.235526	-84.567797	66.853895	386.917567	-163.674411	-30.008636	367.986809	-127.289996	217.183403	274.664069	-122.699614	132.561495	285.949550	-60.515983	159.222869	934.805804	-425.519812	243.133724	921.487944	-419.499986	258.970708	953.665901	-407.271165	313.103480	864.325264	-419.219556	392.177050	804.174907	-400.893867	412.082566	797.970591	-299.550589	349.320580	444.170686	-405.971292	366.299177	454.240480	-335.809424	281.887031	405.274375	-368.881000	449.464443	364.345966	-433.634025	379.752944	705.033534	-422.891174	393.768398	619.547261	-414.395895	361.834809	536.602881	-412.495229	419.757141	619.531674	-384.199490	541.130095	382.826892	-365.551456	-65.667597	852.821728	-238.989910	20.585375	84.812740	-441.954090	21.105293	83.996053	-43.818075	
253	1.2650	432.377121	1250.916213	-66.183114	444.747181	1259.775838	-393.443935	398.298331	1317.511034	-229.586308	405.615498	1176.036390	-232.934879	498.043227	1028.156057	21.708543	704.668768	880.437839	-37.917254	490.570449	1021.461217	-516.531583	695.120809	880.834361	-455.909588	-69.106083	1123.709473	-227.726716	69.276472	1126.909681	-373.961015	82.176745	1121.814843	-83.333445	113.913165	1069.292857	-355.402323	123.503161	1063.943303	-102.525398	-37.127705	1156.019188	-166.867134	-41.776304	1163.649066	-277.704165	51.813370	973.440056	-39.040134	39.364386	1004.795773	-423.823035	147.283036	869.213850	-43.507685	221.325788	823.332166	-49.700462	258.615321	742.922600	-58.928369	245.961058	844.718653	-66.475963	305.972183	656.146958	-93.464632	288.861540	644.349896	-190.360625	230.865620	584.514034	-64.444195	195.018179	503.336368	-81.158200	124.075184	451.392068	-82.045023	215.028094	492.291629	-113.900680	58.349321	377.443399	-84.570733	66.883201	387.152552	-163.676824	-30.003928	368.235494	-127.283439	217.171037	274.734360	-122.694289	132.539889	286.112111	-60.505543	159.131231	934.672206	-425.551279	243.045122	921.324081	-419.553955	258.916375	953.477449	-407.301804	312.995309	864.100362	-419.242615	392.059149	803.903388	-400.906101	411.972229	797.829137	-299.429192	349.282750	443.883831	-405.968601	366.129585	454.122800	-335.859707	281.860052	405.014771	-368.902836	449.482474	364.163545	-433.655792	379.663541	704.795383	-422.941844	393.689425	619.265804	-414.427990	361.777700	536.362748	-412.517770	419.679247	619.350182	-384.254122	541.118446	382.722270	-365.548920	-65.663458	852.806093	-238.979606	20.603840	84.798515	-441.981868	21.098578	83.983671	-43.807328	
254	1.2700	432.256765	1251.150734	-66.163700	444.959690	1260.018902	-393.264377	398.115350	1317.692755	-229.576108	405.513737	1176.124311	-232.852678	498.082674	1028.282573	21.504504	704.673769	880.436766	-37.914683	490.623430	1021.615519	-516.327735	695.132329	880.857364	-455.858267	-69.263325	1123.595774	-227.813327	69.134860	1126.863822	-373.993131	82.014852	1121.788352	-83.352331	113.850036	1069.282469	-355.410361	123.363990	1063.943873	-102.527323	-37.287521	1155.954189	-166.885091	-41.906755	1163.549798	-277.737281	51.734424	973.421237	-39.078393	39.329434	1004.686469	-423.816809	147.273982	869.268020	-43.523482	221.371759	823.422031	-49.709332	258.685570	743.027267	-58.947426	245.973942	844.848834	-66.490953	306.070471	656.290237	-93.468609	288.974296	644.496863	-190.378142	230.931703	584.765916	-64.474255	195.081026	503.497735	-81.133590	124.174810	451.569028	-82.082182	215.103373	492.471266	-113.936332	58.367194	377.693115	-84.600101	66.947140	387.348387	-163.676381	-29.960714	368.494153	-127.286725	217.146963	274.831538	-122.696600	132.519413	286.253396	-60.511650	159.059380	934.512018	-425.560126	242.975669	921.141257	-419.548033	258.870460	953.276321	-407.330301	312.884251	863.853799	-419.239093	391.968324	803.608165	-400.886994	411.925612	797.717172	-299.561797	349.261491	443.582061	-405.970780	366.282001	453.580537	-336.119903	281.666747	404.653883	-368.954944	449.490446	363.993863	-433.646095	379.555493	704.517898	-422.959811	393.616069	619.060802	-414.452850	361.728646	536.136342	-412.523536	419.613942	619.083243	-384.292025	541.115493	382.598548	-365.556667	-65.670450	852.808534	-238.999642	20.592306	84.814817	-441.977366	21.100286	83.983410	-43.808101	
255	1.2750	432.150488	1251.414510	-66.176759	445.173771	1260.229992	-393.053522	397.894107	1317.872419	-229.465177	405.425693	1176.243678	-232.773878	498.114154	1028.434253	21.322046	704.685742	880.418308	-37.931202	490.632865	1021.699301	-516.197057	695.123076	880.882801	-455.772642	-69.373773	1123.512265	-227.810090	69.057853	1126.848619	-374.082427	81.847955	1121.746036	-83.355374	113.790347	1069.269723	-355.418894	123.238143	1063.948805	-102.515152	-37.432378	1155.902170	-166.936028	-42.039263	1163.465502	-277.758564	51.647220	973.422248	-39.083426	39.280133	1004.567265	-423.818667	147.269757	869.349462	-43.556913	221.398287	823.523973	-49.738935	258.759268	743.192360	-58.967482	246.095740	844.763129	-66.654962	306.177120	656.443534	-93.511034	289.098840	644.657792	-190.415893	231.014934	584.956286	-64.498521	195.167771	503.679342	-81.155229	124.243231	451.764002	-82.096291	215.160322	492.643675	-113.965726	58.445423	377.939563	-84.576591	67.077659	387.513920	-163.701049	-29.909695	368.863097	-127.274670	217.130881	274.933715	-122.705760	132.483928	286.425367	-60.507808	159.015206	934.349884	-425.580554	242.899814	920.925872	-419.580457	258.860568	953.006164	-407.306456	312.776155	863.620888	-419.267149	391.848510	803.367483	-400.894540	411.791458	797.561844	-299.338058	349.225224	443.323273	-405.995647	366.255158	453.389248	-336.135978	281.653842	404.309579	-368.965311	449.523159	363.824581	-433.670154	379.488296	704.290707	-422.997229	393.541510	618.850833	-414.458291	361.668837	535.899566	-412.535099	419.563725	618.821264	-384.332567	541.119968	382.486378	-365.545359	-65.662458	852.800663	-239.000452	20.590559	84.816170	-441.964227	21.095285	83.982284	-43.817615	
